<svg width="760" height="180" viewBox="0 0 760 180" fill="none" xmlns="http://www.w3.org/2000/svg" role="img" aria-labelledby="title desc">
  <title id="title">NexusRH</title>
  <desc id="desc">Logo de NexusRH con icono de nodos conectados y texto azul.</desc>
  <defs>
    <linearGradient id="nexusIcon" x1="28" y1="148" x2="156" y2="18" gradientUnits="userSpaceOnUse">
      <stop stop-color="#0B4BB3"/>
      <stop offset="0.55" stop-color="#1269D3"/>
      <stop offset="1" stop-color="#06B6D4"/>
    </linearGradient>
    <linearGradient id="nexusText" x1="210" y1="42" x2="682" y2="42" gradientUnits="userSpaceOnUse">
      <stop stop-color="#0B4BB3"/>
      <stop offset="0.55" stop-color="#1269D3"/>
      <stop offset="1" stop-color="#06B6D4"/>
    </linearGradient>
  </defs>

  <g stroke="url(#nexusIcon)" stroke-width="14" stroke-linecap="round" stroke-linejoin="round">
    <path d="M38 134V46L148 134V46"/>
    <path d="M38 46L148 134"/>
    <path d="M38 134L78 88"/>
    <path d="M78 88L148 46"/>
    <path d="M38 46L78 88"/>
  </g>

  <g fill="url(#nexusIcon)">
    <circle cx="38" cy="46" r="20"/>
    <circle cx="38" cy="134" r="20"/>
    <circle cx="78" cy="88" r="20"/>
    <circle cx="148" cy="46" r="20"/>
    <circle cx="148" cy="134" r="20"/>
  </g>

  <g fill="url(#nexusText)">
    <path d="M211.5 132V48H232.6L269.9 98.2V48H291.5V132H271.4L233.1 80.5V132H211.5Z"/>
    <path d="M338.1 133.6C318.9 133.6 306.2 120.9 306.2 101.9C306.2 83.6 318.8 70.5 336.4 70.5C354.3 70.5 366.2 82.9 366.2 101.3C366.2 103.2 366.1 105.1 365.8 107H328.1C329.8 113.7 334.3 117.1 341.3 117.1C346.9 117.1 351.1 115.2 354.9 111.7L364.6 123.2C358.4 129.9 349.9 133.6 338.1 133.6ZM328.1 95H345.4C344.6 89.1 341.4 85.3 336.8 85.3C332.1 85.3 329 88.9 328.1 95Z"/>
    <path d="M372.7 132L394.3 101.1L374 72H397.7L407.7 87.5L417.9 72H440.7L420.4 100.8L442.4 132H418.7L407.1 114.4L395.4 132H372.7Z"/>
    <path d="M477.9 133.5C462.5 133.5 453.5 123.7 453.5 106.9V72H474.6V104.3C474.6 112 478.1 116.2 484.4 116.2C490.8 116.2 494.8 111.7 494.8 103.9V72H515.9V132H495.5V124.4C491.7 129.7 486.1 133.5 477.9 133.5Z"/>
    <path d="M554.2 133.5C542.8 133.5 533 130.1 524.7 123.3L533.2 110.1C540.2 115 547.8 117.7 554.7 117.7C559 117.7 561.2 116.5 561.2 114.1C561.2 111.1 556.8 110.4 548.4 108.1C536.5 104.9 527.2 100.7 527.2 89.7C527.2 78.1 536.8 70.6 552.1 70.6C562.2 70.6 571.5 73.3 579.2 78.8L571.6 92.6C564.8 88.5 557.7 86.2 551.8 86.2C548.1 86.2 546.1 87.5 546.1 89.6C546.1 92.4 550.2 93.1 558.4 95.4C570.4 98.8 580.2 102.9 580.2 113.9C580.2 126.1 570.4 133.5 554.2 133.5Z"/>
    <path d="M592.9 132V48H632.6C645.6 48 655.7 51.5 662.1 57.9C667.6 63.4 670.4 70.8 670.4 80.2C670.4 93.1 663.6 102.1 652.6 106.7L673.3 132H647.1L629.6 109.6H615.2V132H592.9ZM615.2 91.9H631.6C641.8 91.9 647.7 87.1 647.7 79.3C647.7 71.1 641.6 66.9 631.5 66.9H615.2V91.9Z"/>
    <path d="M686.4 132V48H708.7V80.2H738.8V48H761.1V132H738.8V99.3H708.7V132H686.4Z"/>
  </g>
</svg>
